<?xml version="1.0" standalone="no"?>
<!DOCTYPE svg PUBLIC "-//W3C//DTD SVG 20010904//EN"
 "http://www.w3.org/TR/2001/REC-SVG-20010904/DTD/svg10.dtd">
<svg version="1.0" xmlns="http://www.w3.org/2000/svg"
 width="512.000000pt" height="512.000000pt" viewBox="0 0 512.000000 512.000000"
 preserveAspectRatio="xMidYMid meet">

<g transform="translate(0.000000,512.000000) scale(0.100000,-0.100000)"
fill="#000000" stroke="none">
<path d="M1416 4994 c-12 -11 -16 -35 -16 -85 l0 -69 -224 0 c-215 0 -224 -1
-256 -23 -19 -12 -43 -38 -54 -57 -20 -34 -21 -51 -24 -510 -2 -370 1 -481 11
-500 14 -29 58 -38 75 -17 8 9 12 84 14 223 l3 209 1615 0 1615 0 0 -1068 c0
-1046 0 -1069 -19 -1083 -30 -21 -3162 -21 -3192 0 -18 14 -19 35 -22 697 -2
492 -6 686 -14 696 -17 21 -61 12 -75 -17 -10 -20 -13 -168 -11 -700 3 -657 4
-676 23 -710 12 -21 39 -44 65 -57 l44 -23 1586 0 1586 0 44 23 c26 13 53 36
65 57 20 35 20 48 20 1390 0 1349 0 1355 -21 1390 -11 19 -35 45 -54 57 -32
22 -41 23 -256 23 l-224 0 0 69 c0 73 -14 101 -49 101 -35 0 -51 -32 -51 -103
l0 -67 -225 0 -225 0 0 58 c0 70 -17 106 -51 110 -37 4 -48 -15 -51 -93 l-3
-70 -227 -3 -228 -2 0 69 c0 74 -14 101 -50 101 -36 0 -50 -27 -50 -101 l0
-69 -227 2 -228 3 -3 70 c-3 78 -14 97 -51 93 -34 -4 -51 -40 -51 -110 l0 -58
-225 0 -225 0 0 68 c0 54 -4 72 -18 85 -23 21 -46 22 -66 1z m-214 -549 c25
-56 -28 -95 -108 -80 -43 8 -63 42 -46 80 11 23 17 25 77 25 60 0 66 -2 77
-25z m2868 4 c16 -30 4 -68 -26 -79 -34 -13 -2674 -13 -2708 0 -30 11 -42 49
-26 79 l11 21 1369 0 1369 0 11 -21z"/>
<path d="M2468 3839 c-40 -21 -76 -62 -177 -206 l-63 -90 -137 -43 c-150 -47
-185 -62 -219 -94 -58 -52 -78 -148 -48 -221 8 -19 56 -87 105 -151 l91 -116
0 -177 c0 -167 1 -181 23 -222 16 -29 40 -54 72 -74 73 -45 118 -41 298 24
l148 53 143 -52 c79 -28 161 -54 184 -57 60 -8 142 32 179 88 28 42 28 44 33
233 l5 191 88 112 c48 62 94 128 102 147 40 96 -1 208 -95 256 -19 10 -96 37
-171 60 l-137 43 -63 90 c-103 146 -137 185 -179 207 -51 26 -132 26 -182 -1z
m134 -88 c13 -5 66 -69 123 -150 l100 -141 170 -56 c94 -31 178 -64 188 -74
10 -9 21 -35 24 -56 6 -44 0 -53 -136 -230 l-74 -96 2 -183 2 -183 -28 -32
c-41 -46 -73 -43 -256 24 l-157 57 -157 -57 c-183 -67 -215 -70 -256 -24 l-28
32 2 184 2 184 -74 95 c-135 175 -142 185 -136 229 3 21 14 47 24 56 10 10 95
43 188 74 l170 56 100 141 c55 78 109 145 120 150 27 11 59 11 87 0z"/>
<path d="M862 3608 c-15 -15 -15 -61 0 -76 7 -7 21 -12 33 -12 28 0 45 19 45
50 0 31 -17 50 -45 50 -12 0 -26 -5 -33 -12z"/>
<path d="M431 3456 c-6 -7 -18 -36 -26 -64 -20 -67 -58 -110 -121 -138 -83
-36 -84 -81 -3 -115 62 -27 104 -74 123 -140 19 -63 32 -79 61 -79 29 0 42 16
61 79 19 65 70 123 124 141 79 26 77 78 -3 114 -67 30 -92 59 -118 132 -12 32
-25 65 -31 72 -14 16 -53 15 -67 -2z m66 -298 l-30 -37 -36 37 -36 37 35 37
35 37 31 -37 31 -36 -30 -38z"/>
<path d="M4622 3458 c-6 -7 -19 -40 -31 -72 -26 -73 -51 -102 -118 -132 -82
-37 -82 -81 -2 -115 62 -27 104 -74 123 -140 19 -63 32 -79 61 -79 29 0 42 16
61 79 19 65 70 123 124 141 79 26 77 78 -4 114 -63 28 -101 71 -121 138 -8 28
-20 57 -26 64 -14 17 -53 18 -67 2z m65 -300 l-30 -37 -36 37 -36 37 35 37 35
37 31 -37 31 -36 -30 -38z"/>
<path d="M345 2087 c-47 -22 -94 -66 -118 -111 -22 -40 -22 -50 -25 -472 -3
-387 -1 -433 13 -448 23 -23 61 -20 79 6 14 19 16 78 16 436 0 370 2 417 17
442 42 72 142 80 200 16 l33 -36 0 -186 0 -187 -50 -53 c-130 -137 -161 -330
-82 -498 119 -253 447 -335 666 -168 27 20 55 41 62 46 19 15 89 -21 130 -67
62 -68 64 -78 64 -371 0 -146 4 -276 10 -290 12 -33 55 -45 78 -22 15 14 18
51 22 259 5 235 6 244 31 297 32 69 79 123 134 156 l43 25 58 -41 c159 -111
365 -107 529 11 l45 32 53 -36 c30 -21 68 -57 86 -82 59 -82 64 -107 70 -373
5 -200 9 -244 21 -252 23 -15 45 -12 63 8 13 14 16 56 19 257 3 235 4 241 29
296 33 70 86 129 142 159 l43 23 47 -36 c104 -79 258 -107 384 -68 39 11 98
39 131 61 l61 41 38 -20 c50 -25 119 -100 146 -159 20 -43 22 -68 27 -294 4
-213 7 -250 22 -264 21 -21 68 -11 75 16 5 18 14 20 88 20 75 0 84 -2 90 -20
3 -11 18 -23 32 -26 21 -6 31 -1 49 19 l23 27 255 0 c246 0 255 -1 261 -20 3
-11 18 -23 32 -26 21 -6 31 -1 49 19 21 25 29 27 102 27 71 0 80 -2 85 -20 3
-10 17 -22 33 -26 22 -6 31 -2 46 16 18 22 18 58 16 914 l-3 891 -22 41 c-46
86 -122 128 -224 122 -79 -4 -134 -35 -176 -100 -28 -41 -28 -44 -31 -221 -3
-163 -5 -178 -20 -172 -85 32 -222 30 -313 -5 -119 -46 -230 -167 -265 -288
-22 -76 -15 -229 14 -293 l20 -46 -35 -17 c-57 -27 -99 -63 -135 -116 -18 -27
-35 -50 -38 -50 -3 0 -17 18 -33 39 -15 22 -54 57 -86 79 -56 37 -58 40 -45
63 8 13 23 55 35 93 33 104 24 213 -26 312 -60 122 -171 212 -297 243 -55 13
-76 7 -89 -26 -14 -37 4 -59 58 -72 326 -81 369 -508 65 -649 -81 -38 -193
-38 -275 0 -126 59 -200 176 -200 318 -1 78 16 126 75 222 22 36 22 37 4 57
-31 34 -62 27 -97 -21 -97 -132 -114 -311 -43 -450 14 -28 24 -51 22 -52 -2
-2 -24 -17 -49 -34 -44 -30 -96 -82 -131 -132 l-18 -25 -17 25 c-36 50 -88
102 -132 132 -25 17 -47 32 -49 34 -2 1 8 25 22 53 100 196 21 451 -175 568
-293 175 -668 -41 -669 -383 0 -60 26 -164 54 -213 13 -23 11 -26 -45 -63 -32
-22 -71 -57 -86 -79 -16 -21 -30 -39 -33 -39 -3 0 -18 20 -33 45 -31 49 -83
94 -139 121 l-36 17 20 46 c30 67 36 220 12 296 -39 125 -144 239 -263 285
-73 28 -198 36 -268 17 l-53 -14 0 121 c0 212 -24 285 -112 343 -34 23 -54 28
-112 31 -44 1 -82 -3 -101 -11z m633 -593 c68 -33 123 -87 159 -156 25 -48 28
-63 28 -153 0 -89 -3 -105 -27 -150 -50 -94 -126 -155 -227 -181 -119 -30
-245 9 -332 103 -66 71 -92 145 -87 248 8 152 103 271 247 312 69 19 172 10
239 -23z m1146 3 c215 -99 270 -379 107 -546 -133 -136 -334 -145 -475 -20
-140 122 -153 343 -29 480 103 114 261 148 397 86z m2314 -3 c68 -33 123 -87
159 -156 25 -47 28 -64 28 -148 0 -82 -4 -103 -26 -150 -14 -30 -46 -74 -70
-98 -167 -163 -436 -118 -548 93 -23 44 -26 61 -26 150 0 106 12 143 72 222
32 41 113 93 172 110 69 19 172 10 239 -23z"/>
<path d="M2971 1593 c-29 -19 -27 -59 3 -78 43 -28 91 18 67 63 -14 26 -45 33
-70 15z"/>
<path d="M220 920 c-24 -24 -25 -43 -4 -64 22 -22 60 -20 78 5 16 23 12 47
-12 67 -22 17 -39 15 -62 -8z"/>
<path d="M220 720 c-19 -19 -20 -33 -20 -294 0 -250 2 -276 18 -296 24 -30 68
-21 83 17 6 16 9 131 7 296 -3 253 -4 269 -22 283 -27 19 -42 18 -66 -6z"/>
<path d="M487 472 c-24 -27 -25 -322 -1 -346 21 -21 47 -20 67 2 14 16 17 43
17 174 0 137 -2 157 -18 171 -24 22 -45 21 -65 -1z"/>
<path d="M1107 472 c-24 -27 -25 -322 -1 -346 21 -21 47 -20 67 2 14 16 17 43
17 174 0 137 -2 157 -18 171 -24 22 -45 21 -65 -1z"/>
<path d="M1637 472 c-14 -16 -17 -43 -17 -169 0 -131 2 -154 18 -173 24 -30
68 -21 82 16 6 14 10 87 10 162 0 108 -3 142 -16 160 -18 27 -55 29 -77 4z"/>
<path d="M2257 472 c-14 -16 -17 -43 -17 -169 0 -131 2 -154 18 -173 24 -30
68 -21 82 16 6 14 10 87 10 162 0 108 -3 142 -16 160 -18 27 -55 29 -77 4z"/>
<path d="M2794 476 c-17 -13 -19 -29 -22 -158 -4 -160 4 -194 44 -204 21 -6
31 -2 46 16 16 19 18 42 18 171 0 136 -2 151 -20 169 -24 24 -39 25 -66 6z"/>
<path d="M3414 476 c-17 -13 -19 -29 -22 -158 -4 -160 4 -194 44 -204 21 -6
31 -2 46 16 16 19 18 42 18 171 0 136 -2 151 -20 169 -24 24 -39 25 -66 6z"/>
</g>
</svg>
